<svg width="30" height="20" viewBox="0 0 30 20" fill="none" xmlns="http://www.w3.org/2000/svg">
<path d="M23.5172 2.64531L22.3762 3.78632C20.1866 2.34148 17.6503 1.58355 15.005 1.58355C12.3597 1.58355 9.84155 2.33817 7.65859 3.77311L6.51758 2.6321C9.02253 0.908189 11.9469 0 15.0067 0C18.0664 0 21.0106 0.914794 23.5189 2.64531H23.5172Z" fill="#6DBCDB"/>
<path d="M1.58355 15.0049C1.58355 16.6298 1.86922 18.21 2.42404 19.6945H0.744716C0.252643 18.1968 0 16.6199 0 15.0049C0 11.9303 0.923051 8.98117 2.66842 6.46631L3.80779 7.60402C2.35303 9.80184 1.58355 12.3514 1.58355 15.0049Z" fill="url(#paint0_linear_3_706)"/>
<path d="M28.4166 15.0049C28.4166 16.6298 28.131 18.21 27.5761 19.6945H29.2555C29.7475 18.1968 30.0002 16.6199 30.0002 15.0049C30.0002 11.9303 29.0771 8.98117 27.3317 6.46631L26.1924 7.60402C27.6471 9.80184 28.4166 12.3514 28.4166 15.0049Z" fill="url(#paint1_linear_3_706)"/>
<path d="M17.2987 19.3791C16.7406 19.6351 16.1759 19.7754 15.5897 19.82C14.5824 19.8976 13.6181 19.7061 12.7033 19.2834C12.5398 19.2074 12.3797 19.0885 12.2624 18.9531C12.0544 18.7137 12.1914 18.4478 12.5035 18.3884C13.1409 18.2662 13.7172 18.4676 14.3034 18.6674C14.6733 18.7929 15.0448 18.9151 15.418 19.0324C15.7779 19.1446 16.1379 19.2718 16.5095 19.3296C16.772 19.3709 17.0345 19.361 17.2987 19.3808V19.3791Z" fill="url(#paint2_linear_3_706)"/>
<path d="M20.0083 16.2102L20.013 16.2071C20.013 16.2071 20.0115 16.2071 20.0083 16.2102Z" fill="url(#paint3_linear_3_706)"/>
<path d="M20.018 15.639C19.9701 15.6473 19.9321 15.6522 19.9205 15.6555C19.7917 15.677 19.663 15.6918 19.5325 15.7001C19.2468 15.7199 18.9579 15.7183 18.6722 15.7001C18.0976 15.6638 17.5295 15.5614 16.9698 15.4293C16.9136 15.4161 16.8591 15.4029 16.803 15.3897C16.798 15.3897 16.7914 15.3864 16.7865 15.3864C15.6587 15.1057 14.5243 14.8266 13.375 14.6417C12.376 14.4815 11.3489 14.4121 10.3466 14.5855C10.155 14.6185 9.90405 14.6334 9.78021 14.8068C9.74883 14.8497 9.73232 14.8992 9.72076 14.9521C9.6349 15.3253 9.7736 15.7397 9.91726 16.0815C9.94203 16.1393 9.9701 16.1988 10.018 16.2417C10.1831 16.3821 10.5134 16.2516 10.7 16.2252C10.984 16.1823 11.2713 16.1575 11.5586 16.1459C12.1349 16.1228 12.7112 16.1542 13.2825 16.2186C13.4823 16.2417 13.6821 16.2681 13.8803 16.2979C13.9381 16.3061 13.9959 16.316 14.0536 16.3243C15.1947 16.5059 16.3258 16.7998 17.4817 16.8527C17.5642 16.856 17.6484 16.8593 17.731 16.8609C18.2924 16.8708 18.8687 16.8444 19.3922 16.6182C19.6134 16.5224 19.8215 16.387 19.9849 16.207C20.1319 16.0452 20.2723 15.781 20.3086 15.5647C20.3053 15.5895 20.1352 15.6208 20.0213 15.6407L20.018 15.639Z" fill="url(#paint4_linear_3_706)"/>
<path d="M18.4164 17.3282C17.9227 17.4157 17.4191 17.4521 16.9237 17.3679C15.7794 17.1747 14.6483 16.8873 13.4957 16.7338C13.4726 16.7305 13.4478 16.7288 13.4247 16.7255C13.2761 16.7057 13.1258 16.6958 12.9788 16.6958C12.9788 16.6958 11.8015 16.6413 10.8586 17.1846C10.786 17.2258 10.8075 17.3365 10.89 17.348C10.9726 17.3596 11.07 17.3745 11.1955 17.391C11.7652 17.4702 12.3349 17.5511 12.8963 17.6783C13.4594 17.8054 14.0142 17.9673 14.5674 18.1324C15.1205 18.2975 15.6456 18.4725 16.2004 18.5667C16.8164 18.6723 17.457 18.6856 18.063 18.5188C18.3553 18.4379 18.6377 18.3091 18.8788 18.1241C19.143 17.9227 19.3411 17.6486 19.5195 17.3728C19.5541 17.32 19.5872 17.2655 19.6185 17.2093C19.6549 17.1433 19.5938 17.0657 19.5195 17.0838C19.1496 17.173 18.783 17.2638 18.4164 17.3299V17.3282Z" fill="#727CB8"/>
<path d="M18.4164 17.3282C17.9227 17.4157 17.4191 17.4521 16.9237 17.3679C15.7794 17.1747 14.6483 16.8873 13.4957 16.7338C13.4726 16.7305 13.4478 16.7288 13.4247 16.7255C13.2761 16.7057 13.1258 16.6958 12.9788 16.6958C12.9788 16.6958 11.8015 16.6413 10.8586 17.1846C10.786 17.2258 10.8075 17.3365 10.89 17.348C10.9726 17.3596 11.07 17.3745 11.1955 17.391C11.7652 17.4702 12.3349 17.5511 12.8963 17.6783C13.4594 17.8054 14.0142 17.9673 14.5674 18.1324C15.1205 18.2975 15.6456 18.4725 16.2004 18.5667C16.8164 18.6723 17.457 18.6856 18.063 18.5188C18.3553 18.4379 18.6377 18.3091 18.8788 18.1241C19.143 17.9227 19.3411 17.6486 19.5195 17.3728C19.5541 17.32 19.5872 17.2655 19.6185 17.2093C19.6549 17.1433 19.5938 17.0657 19.5195 17.0838C19.1496 17.173 18.783 17.2638 18.4164 17.3299V17.3282Z" fill="url(#paint5_linear_3_706)"/>
<path d="M19.5935 11.8494C19.5935 11.8081 19.5935 11.7685 19.5935 11.7305V11.4168C19.5935 11.3276 19.5935 11.2368 19.5968 11.1459C19.5968 11.0848 19.5803 10.885 19.3045 10.8553C19.1543 10.8388 18.971 10.8173 18.7646 10.7909C18.6192 10.7728 18.464 10.7513 18.2741 10.7199L18.2708 10.2856C18.2708 9.61523 18.2675 8.92171 18.2708 8.23809C18.2708 8.17369 18.2642 8.09938 18.213 8.04985C18.1734 8.01187 18.1156 7.99536 18.0347 7.99701C17.8101 8.00361 17.5806 8.00031 17.3577 7.99701C17.2834 7.99701 17.2107 7.99536 17.1364 7.9937C17.0588 7.9937 16.9796 7.9937 16.897 7.9937H16.826C16.826 7.9227 16.826 7.85335 16.8243 7.784C16.8227 7.57759 16.821 7.38109 16.8293 7.18459C16.8359 7.09873 16.821 7.03928 16.7831 6.99635L16.7665 6.97818H15.254V6.22852H14.5803V6.97818H13.043L13.0265 7.00626C13.0017 7.05084 13 7.10698 13.0017 7.15652C13.01 7.35962 13.0083 7.56273 13.0066 7.77739C13.0066 7.85005 13.0066 7.9227 13.005 7.99701C12.9142 7.99701 12.8217 7.99701 12.7309 7.99701C12.4155 7.99701 12.1166 7.99701 11.8095 7.9937C11.7236 7.99205 11.6658 8.01187 11.6262 8.0515C11.5882 8.08948 11.5717 8.14727 11.575 8.22488C11.5767 8.2579 11.5767 8.29258 11.575 8.32891C11.575 8.35698 11.575 8.3834 11.575 8.41147C11.5767 8.62448 11.5783 8.83584 11.58 9.0472C11.5849 9.60368 11.5882 10.1767 11.5981 10.743C11.5981 10.743 11.5849 10.7447 11.5783 10.7463C11.5783 10.7463 11.5783 10.7463 11.5767 10.7463C11.5535 10.7496 11.5288 10.7529 11.5057 10.7562C11.4825 10.7596 11.4611 10.7629 11.4396 10.7662C11.3736 10.7761 11.3042 10.786 11.2349 10.7942C11.2282 10.7942 11.2233 10.7959 11.2167 10.7959C11.1506 10.8041 11.0813 10.814 11.0136 10.8206C10.9442 10.8289 10.8732 10.8372 10.8006 10.8438C10.7543 10.8487 10.7114 10.8537 10.6718 10.8619C10.5942 10.8768 10.5314 10.8966 10.4852 10.9412C10.4819 10.9445 10.4769 10.9478 10.4736 10.9527C10.4257 11.0072 10.3993 11.0898 10.4026 11.2236L10.4142 11.7057C10.4175 11.8362 10.4208 11.9831 10.4241 12.1433C10.429 12.3448 10.4373 12.5627 10.4472 12.7807C10.4505 12.8666 10.4555 12.9409 10.4654 13.0152C10.5 13.319 10.5777 13.6179 10.6965 13.9085C11.5882 13.8028 12.4931 13.8738 13.3782 14.0142C13.9214 14.1017 14.4631 14.209 15.0014 14.3296V10.3319L15.3283 10.4706L15.5083 10.5482C16.4842 10.9594 17.3428 11.2219 18.1949 11.3639C18.4228 11.4019 18.6556 11.4316 18.8884 11.4547V11.5422C18.8884 11.5604 18.8884 11.5786 18.8884 11.5967C18.8884 11.6776 18.8884 11.7619 18.8884 11.8461C18.8884 11.9435 18.8884 12.0426 18.8868 12.1433C18.8868 12.3299 18.8818 12.4835 18.8719 12.6288C18.8455 13.0564 18.7464 13.4709 18.578 13.8573L18.5631 13.887L18.5565 13.9035C18.4393 14.1661 18.2857 14.422 18.1041 14.6664C18.0644 14.7176 18.0281 14.7655 17.9901 14.8101C17.9439 14.8662 17.896 14.9224 17.8465 14.9785C18.1057 15.0214 18.3666 15.0528 18.6292 15.0693C18.6803 15.0049 18.7282 14.9405 18.7728 14.8761C19.0634 14.465 19.2781 14.0224 19.4119 13.5584C19.506 13.2282 19.5687 12.8765 19.5918 12.5148C19.6001 12.4042 19.6034 12.287 19.6051 12.1433C19.6051 12.0558 19.605 11.9518 19.6001 11.8444L19.5935 11.8494ZM13.6804 7.5974H16.1671V7.9904H13.6804V7.5974ZM17.6335 10.5944C17.2256 10.5003 16.8557 10.3847 16.5073 10.2444C16.1374 10.0941 15.7312 9.92567 15.1929 9.69615C15.1202 9.66477 15.0492 9.64991 14.9799 9.65321C14.9634 9.65321 14.9452 9.65486 14.9287 9.65817C14.9072 9.66147 14.8858 9.66642 14.8643 9.67303C14.8362 9.68128 14.8098 9.69284 14.7817 9.7077L14.7355 9.73082C14.6711 9.76715 14.6001 9.80513 14.5308 9.8332C14.468 9.85962 14.4036 9.88604 14.3392 9.91081C14.3376 9.91081 14.3343 9.91246 14.331 9.91411C14.2979 9.92897 14.2649 9.94218 14.2302 9.95374C14.2022 9.9653 14.1724 9.97686 14.1444 9.98842L14.1278 9.99502L14.1196 9.99832C13.9677 10.0594 13.8158 10.1189 13.6638 10.1833C13.223 10.3682 12.7524 10.5135 12.2289 10.6258V8.67567H17.6318V10.5961L17.6335 10.5944Z" fill="#6C9ACB"/>
<path d="M13.0286 9.63175C13.2019 9.63175 13.3423 9.49128 13.3423 9.31801C13.3423 9.14474 13.2019 9.00427 13.0286 9.00427C12.8553 9.00427 12.7148 9.14474 12.7148 9.31801C12.7148 9.49128 12.8553 9.63175 13.0286 9.63175Z" fill="#6C9ACB"/>
<path d="M14.2586 9.63175C14.4319 9.63175 14.5723 9.49139 14.5723 9.31801C14.5723 9.14463 14.4319 9.00427 14.2586 9.00427C14.0852 9.00427 13.9448 9.14463 13.9448 9.31801C13.9448 9.49139 14.0852 9.63175 14.2586 9.63175Z" fill="#6C9ACB"/>
<path d="M15.6077 9.63175C15.781 9.63175 15.9214 9.49128 15.9214 9.31801C15.9214 9.14474 15.781 9.00427 15.6077 9.00427C15.4344 9.00427 15.2939 9.14474 15.2939 9.31801C15.2939 9.49128 15.4344 9.63175 15.6077 9.63175Z" fill="#6C9ACB"/>
<path d="M16.8396 9.63175C17.0129 9.63175 17.1534 9.49128 17.1534 9.31801C17.1534 9.14474 17.0129 9.00427 16.8396 9.00427C16.6663 9.00427 16.5259 9.14474 16.5259 9.31801C16.5259 9.49128 16.6663 9.63175 16.8396 9.63175Z" fill="#6C9ACB"/>
<path d="M13.0286 9.63175C13.2019 9.63175 13.3423 9.49128 13.3423 9.31801C13.3423 9.14474 13.2019 9.00427 13.0286 9.00427C12.8553 9.00427 12.7148 9.14474 12.7148 9.31801C12.7148 9.49128 12.8553 9.63175 13.0286 9.63175Z" fill="#6C9ACB"/>
<path d="M14.2586 9.63175C14.4319 9.63175 14.5723 9.49139 14.5723 9.31801C14.5723 9.14463 14.4319 9.00427 14.2586 9.00427C14.0852 9.00427 13.9448 9.14463 13.9448 9.31801C13.9448 9.49139 14.0852 9.63175 14.2586 9.63175Z" fill="#6C9ACB"/>
<path d="M15.6077 9.63175C15.781 9.63175 15.9214 9.49128 15.9214 9.31801C15.9214 9.14474 15.781 9.00427 15.6077 9.00427C15.4344 9.00427 15.2939 9.14474 15.2939 9.31801C15.2939 9.49128 15.4344 9.63175 15.6077 9.63175Z" fill="#6C9ACB"/>
<path d="M16.8396 9.63175C17.0129 9.63175 17.1534 9.49128 17.1534 9.31801C17.1534 9.14474 17.0129 9.00427 16.8396 9.00427C16.6663 9.00427 16.5259 9.14474 16.5259 9.31801C16.5259 9.49128 16.6663 9.63175 16.8396 9.63175Z" fill="#6C9ACB"/>
<path d="M14.9291 9.65981C14.9076 9.66311 14.8861 9.66807 14.8647 9.67467C14.8366 9.68293 14.8102 9.69448 14.7821 9.70935L14.7359 9.73246C14.6715 9.76879 14.6005 9.80677 14.5311 9.83484C14.4684 9.86126 14.404 9.88768 14.3396 9.91245C14.3379 9.91245 14.3346 9.9141 14.3313 9.91575C14.2983 9.93061 14.2653 9.94383 14.2306 9.95538C14.2025 9.96694 14.1728 9.9785 14.1447 9.99006L14.1282 9.99667L14.1183 9.99997C13.9664 10.0611 13.8145 10.1205 13.6642 10.1833C13.2233 10.3682 12.7527 10.5135 12.2293 10.6258C12.2293 10.6258 11.861 10.7001 11.5952 10.7447C11.5952 10.7447 11.582 10.748 11.5754 10.748C11.5754 10.748 11.5754 10.748 11.5737 10.748C11.5506 10.7513 11.5258 10.7546 11.5027 10.7579C11.4796 10.7612 11.4581 10.7645 11.4367 10.7678C11.4136 10.7711 11.3904 10.7744 11.369 10.7777C11.3244 10.7843 11.2782 10.7893 11.2319 10.7959C11.2253 10.7959 11.2204 10.7975 11.2138 10.7975C11.1477 10.8058 11.0784 10.8157 11.0107 10.8223C10.9413 10.8305 10.8703 10.8388 10.796 10.8471C10.7498 10.852 10.7068 10.857 10.6688 10.8636C10.5912 10.8784 10.5285 10.8982 10.4823 10.9428C10.479 10.9461 10.474 10.9494 10.4707 10.9544C10.4228 11.0089 10.3964 11.0914 10.3997 11.2252L10.4113 11.7074C10.4146 11.8378 10.4179 11.9848 10.4212 12.1449C10.4261 12.3464 10.4344 12.5644 10.4443 12.7823C10.4476 12.8682 10.4525 12.9425 10.4624 13.0168C10.4971 13.3206 10.5747 13.6195 10.6936 13.9101C11.5853 13.8045 12.4902 13.8755 13.3752 14.0158C13.9185 14.1033 14.4601 14.2107 14.9984 14.3312V9.6499C14.9753 9.6499 14.9522 9.6499 14.9291 9.65486V9.65981Z" fill="#727CB8"/>
<path d="M4.83978 3.54688C4.42697 3.54688 4.05379 3.71365 3.78298 3.98611C3.51218 4.25691 3.34375 4.6301 3.34375 5.04291C3.34375 5.45572 3.51218 5.83056 3.78298 6.09971C4.05379 6.37052 4.42697 6.53894 4.83978 6.53894C5.66541 6.53894 6.33417 5.86854 6.33417 5.04291C6.33417 4.21728 5.66376 3.54853 4.83978 3.54853V3.54688Z" fill="#6DBCDB"/>
<path d="M24.9306 3.54688C24.105 3.54688 23.4346 4.21728 23.4346 5.04126C23.4346 5.86523 24.105 6.53729 24.9306 6.53729C25.7562 6.53729 26.425 5.86688 26.425 5.04126C26.425 4.21563 25.7546 3.54688 24.9306 3.54688Z" fill="#6DBCDB"/>
<path d="M19.5938 11.8494C19.5938 11.8081 19.5938 11.7685 19.5938 11.7305V11.4167C19.5938 11.3276 19.5938 11.2367 19.5971 11.1459C19.5971 11.0848 19.5806 10.885 19.3048 10.8553C19.1546 10.8388 18.9713 10.8173 18.7649 10.7909C18.6228 10.7744 18.4693 10.7513 18.286 10.7216H18.2761L17.6354 10.5944C17.2275 10.5003 16.8577 10.3847 16.5092 10.2443C16.1394 10.0941 15.7332 9.92566 15.1949 9.69613C15.1288 9.66641 15.0627 9.6532 15 9.6532V10.3368L15.3269 10.4755L15.5069 10.5531C16.4828 10.9643 17.3415 11.2268 18.1935 11.3688C18.4214 11.4068 18.6542 11.4366 18.8871 11.4597V11.5472C18.8871 11.5653 18.8871 11.5835 18.8871 11.6017C18.8871 11.6826 18.8871 11.7668 18.8871 11.851C18.8871 11.9484 18.8871 12.0475 18.8854 12.1482C18.8854 12.3348 18.8804 12.4884 18.8705 12.6337C18.8441 13.0614 18.745 13.4758 18.5766 13.8622L18.5618 13.892L18.5552 13.9085C18.4379 14.171 18.2843 14.427 18.1027 14.6714C18.0631 14.7225 18.0268 14.7704 17.9888 14.815C17.9425 14.8712 17.8946 14.9273 17.8451 14.9834C18.1044 15.0264 18.3653 15.0577 18.6278 15.0743C18.679 15.0099 18.7269 14.9455 18.7715 14.8811C19.0621 14.4699 19.2767 14.0274 19.4105 13.5634C19.5046 13.2331 19.5674 12.8814 19.5921 12.5198C19.6004 12.4091 19.6037 12.2919 19.6053 12.1482C19.6053 12.0607 19.6053 11.9567 19.6004 11.8494H19.5938Z" fill="#727CB8"/>
<defs>
<linearGradient id="paint0_linear_3_706" x1="1.57199" y1="17.1136" x2="2.05416" y2="8.35204" gradientUnits="userSpaceOnUse">
<stop offset="0.04" stop-color="#707AB6"/>
<stop offset="1" stop-color="#6DBCDB"/>
</linearGradient>
<linearGradient id="paint1_linear_3_706" x1="28.4282" y1="17.1136" x2="27.9444" y2="8.35204" gradientUnits="userSpaceOnUse">
<stop offset="0.04" stop-color="#707AB6"/>
<stop offset="1" stop-color="#6DBCDB"/>
</linearGradient>
<linearGradient id="paint2_linear_3_706" x1="12.1634" y1="19.0935" x2="17.2987" y2="19.0935" gradientUnits="userSpaceOnUse">
<stop offset="0.04" stop-color="#707AB6"/>
<stop offset="1" stop-color="#6DBCDB"/>
</linearGradient>
<linearGradient id="paint3_linear_3_706" x1="20.0083" y1="16.2087" x2="20.013" y2="16.2087" gradientUnits="userSpaceOnUse">
<stop offset="0.04" stop-color="#707AB6"/>
<stop offset="1" stop-color="#6DBCDB"/>
</linearGradient>
<linearGradient id="paint4_linear_3_706" x1="9.69269" y1="15.6704" x2="20.3069" y2="15.6704" gradientUnits="userSpaceOnUse">
<stop offset="0.04" stop-color="#707AB6"/>
<stop offset="1" stop-color="#6DBCDB"/>
</linearGradient>
<linearGradient id="paint5_linear_3_706" x1="10.8141" y1="17.67" x2="19.6301" y2="17.67" gradientUnits="userSpaceOnUse">
<stop offset="0.04" stop-color="#707AB6"/>
<stop offset="1" stop-color="#6DBCDB"/>
</linearGradient>
</defs>
</svg>
