<?xml version="1.0" encoding="UTF-8"?>
<svg id="Layer_1" data-name="Layer 1" xmlns="http://www.w3.org/2000/svg" viewBox="0 0 256 256">
  <defs>
    <style>
      .cls-1 {
        fill: #ffd2c0;
      }

      .cls-2 {
        fill: #fff;
      }

      .cls-3 {
        fill: #e59076;
      }

      .cls-4 {
        fill: #ffa91a;
      }

      .cls-5 {
        fill: #6dbddc;
      }

      .cls-6 {
        fill: #fcc4ae;
      }

      .cls-7 {
        fill: #4e5581;
      }

      .cls-8 {
        fill: #717cb9;
      }

      .cls-9 {
        fill: #f2ad97;
      }
    </style>
  </defs>
  <path class="cls-5" d="M160.66,104.96v-25.23c0-1.81,1.46-3.27,3.27-3.27h29.2c1.81,0,3.27,1.46,3.27,3.27s-1.46,3.27-3.27,3.27h-25.93v21.96c0,1.81-1.46,3.27-3.27,3.27s-3.27-1.46-3.27-3.27Z"/>
  <circle class="cls-8" cx="193.13" cy="79.74" r="8.63" transform="translate(-10.28 31.97) rotate(-9.22)"/>
  <path class="cls-5" d="M160.66,195.77v-25.23c0-1.81,1.46-3.27,3.27-3.27s3.27,1.46,3.27,3.27v21.96h25.93c1.81,0,3.27,1.46,3.27,3.27s-1.46,3.27-3.27,3.27h-29.2c-1.81,0-3.27-1.46-3.27-3.27Z"/>
  <circle class="cls-8" cx="193.13" cy="195.77" r="8.63" transform="translate(-33.8 351.1) rotate(-79.78)"/>
  <path class="cls-5" d="M158.83,137.75c0-1.81,1.46-3.27,3.27-3.27h67.54c1.81,0,3.27,1.46,3.27,3.27s-1.46,3.27-3.27,3.27h-67.54c-1.81,0-3.27-1.46-3.27-3.27Z"/>
  <circle class="cls-8" cx="229.64" cy="137.75" r="8.63" transform="translate(-17.18 33.87) rotate(-8.13)"/>
  <path class="cls-5" d="M158.83,154.28c0-1.81,1.46-3.27,3.27-3.27h52.84c1.81,0,3.27,1.46,3.27,3.27v19.69c0,1.81-1.46,3.27-3.27,3.27s-3.27-1.46-3.27-3.27v-16.42h-49.57c-1.81,0-3.27-1.46-3.27-3.27Z"/>
  <circle class="cls-8" cx="214.93" cy="173.97" r="8.63" transform="translate(-27.57 41.1) rotate(-10.27)"/>
  <path class="cls-5" d="M158.83,121.23c0-1.81,1.46-3.27,3.27-3.27h49.57v-16.42c0-1.81,1.46-3.27,3.27-3.27s3.27,1.46,3.27,3.27v19.69c0,1.81-1.46,3.27-3.27,3.27h-52.84c-1.81,0-3.27-1.46-3.27-3.27Z"/>
  <circle class="cls-8" cx="214.93" cy="101.54" r="8.63" transform="translate(80.27 297.43) rotate(-80.78)"/>
  <g>
    <path class="cls-5" d="M95.34,103.77v-25.23c0-1.81-1.46-3.27-3.27-3.27h-29.2c-1.81,0-3.27,1.46-3.27,3.27,0,1.81,1.46,3.27,3.27,3.27h25.93v21.96c0,1.81,1.46,3.27,3.27,3.27s3.27-1.46,3.27-3.27Z"/>
    <circle class="cls-8" cx="62.87" cy="78.54" r="8.63" transform="translate(-24.73 128.02) rotate(-80.78)"/>
  </g>
  <g>
    <path class="cls-5" d="M95.34,194.58v-25.23c0-1.81-1.46-3.27-3.27-3.27s-3.27,1.46-3.27,3.27v21.96h-25.93c-1.81,0-3.27,1.46-3.27,3.27,0,1.81,1.46,3.27,3.27,3.27h29.2c1.81,0,3.27-1.46,3.27-3.27Z"/>
    <circle class="cls-8" cx="62.87" cy="194.58" r="8.63" transform="translate(-33.53 14.24) rotate(-10.22)"/>
  </g>
  <path class="cls-5" d="M97.17,136.56c0-1.81-1.46-3.27-3.27-3.27H26.36c-1.81,0-3.27,1.46-3.27,3.27,0,1.81,1.46,3.27,3.27,3.27h67.54c1.81,0,3.27-1.46,3.27-3.27Z"/>
  <circle class="cls-8" cx="26.36" cy="136.56" r="8.63" transform="translate(-112.56 143.34) rotate(-81.87)"/>
  <path class="cls-5" d="M97.17,153.08c0-1.81-1.46-3.27-3.27-3.27h-52.84c-1.81,0-3.27,1.46-3.27,3.27v19.69c0,1.81,1.46,3.27,3.27,3.27,1.81,0,3.27-1.46,3.27-3.27v-16.42h49.57c1.81,0,3.27-1.46,3.27-3.27Z"/>
  <circle class="cls-8" cx="41.07" cy="172.78" r="8.63" transform="translate(-136.26 182.39) rotate(-79.73)"/>
  <path class="cls-5" d="M97.17,120.04c0-1.81-1.46-3.27-3.27-3.27h-49.57v-16.42c0-1.81-1.46-3.27-3.27-3.27s-3.27,1.46-3.27,3.27v19.69c0,1.81,1.46,3.27,3.27,3.27h52.84c1.81,0,3.27-1.46,3.27-3.27Z"/>
  <circle class="cls-8" cx="41.07" cy="100.35" r="8.63" transform="translate(-15.54 7.87) rotate(-9.22)"/>
  <g>
    <g>
      <rect class="cls-8" x="109.32" y="142.72" width="40.09" height="84.02" rx="5.76" ry="5.76" transform="translate(-55.36 314.09) rotate(-90)"/>
      <path class="cls-7" d="M165.62,164.73c.03.27.05.54.05.81v26.95c0,3.63-2.94,6.57-6.57,6.57h-70.88c-.28,0-.55-.02-.81-.05.4,3.25,3.17,5.76,6.52,5.76h70.88c3.63,0,6.57-2.94,6.57-6.57v-26.95c0-3.35-2.51-6.12-5.76-6.52Z"/>
    </g>
    <path class="cls-8" d="M95.58,204.72h67.58v36.16c0,1.1-.9,2-2,2h-63.58c-1.1,0-2-.9-2-2v-36.16h0Z"/>
    <path class="cls-7" d="M151.74,204.72v35.88c0,1.26-1.02,2.28-2.28,2.28h11.42c1.26,0,2.28-1.02,2.28-2.28v-35.88h-11.42Z"/>
  </g>
  <g>
    <g>
      <path class="cls-6" d="M167.69,142.37s0-38.23,0-38.23h-79.11v50.84c4.6,3.46,7.82,6.89,7.76,9.7h66.18v-5.23c-.4-6.34,5.57-10.74,5.17-17.08Z"/>
      <g>
        <path class="cls-6" d="M88.59,154.47v.51c.3.23.6.45.89.68-.26-.39-.55-.79-.89-1.19Z"/>
        <path class="cls-9" d="M167.69,142.37s0-38.23,0-38.23h-5.71c0,10.66,0,32.52,0,32.52.4,6.34-5.57,10.74-5.17,17.08v5.23h-63.6c1.98,2.05,3.17,4,3.13,5.71h66.18v-5.23c-.4-6.34,5.57-10.74,5.17-17.08Z"/>
      </g>
      <path class="cls-3" d="M88.59,127.28c0,3.21,3.17,5.42,6.2,4.36,2.53-.89,5.24-1.37,8.07-1.37,9.36,0,17.49,5.24,21.62,12.94,1,1.87,3.76,1.87,4.77,0,4.14-7.7,12.27-12.94,21.62-12.94,1.35,0,2.67.11,3.96.32,6.77,1.11,12.86-4.31,12.86-11.17v-15.27h-79.11v23.14Z"/>
    </g>
    <path class="cls-1" d="M128.14,83.92v25.21c0,5.46-4.43,9.89-9.89,9.89h0c-5.46,0-9.89-4.43-9.89-9.89v-25.21c0-5.46,4.43-9.89,9.89-9.89h0c5.46,0,9.89,4.43,9.89,9.89Z"/>
    <path class="cls-6" d="M121.78,74.68c.42,1.1.65,2.29.65,3.53v25.21c0,5.46-4.43,9.89-9.89,9.89-1.24,0-2.43-.23-3.53-.65,1.42,3.72,5.02,6.36,9.24,6.36,5.46,0,9.89-4.43,9.89-9.89v-25.21c0-4.22-2.64-7.82-6.36-9.24Z"/>
    <path class="cls-1" d="M147.92,88.83v25.21c0,5.46-4.43,9.89-9.89,9.89h0c-5.46,0-9.89-4.43-9.89-9.89v-25.21c0-5.46,4.43-9.89,9.89-9.89h0c5.46,0,9.89,4.43,9.89,9.89Z"/>
    <path class="cls-6" d="M141.56,79.59c.42,1.1.65,2.29.65,3.53v25.21c0,5.46-4.43,9.89-9.89,9.89-1.24,0-2.43-.23-3.53-.65,1.42,3.72,5.02,6.36,9.24,6.36,5.46,0,9.89-4.43,9.89-9.89v-25.21c0-4.22-2.64-7.82-6.36-9.24Z"/>
    <path class="cls-1" d="M167.69,93.75v25.21c0,5.46-4.43,9.89-9.89,9.89h0c-5.46,0-9.89-4.43-9.89-9.89v-25.21c0-5.46,4.43-9.89,9.89-9.89h0c5.46,0,9.89,4.43,9.89,9.89Z"/>
    <path class="cls-6" d="M157.81,83.86c-.52,0-1.03.04-1.53.12v23.56c0,4.94-3.62,9.04-8.36,9.77v1.65c0,5.46,4.43,9.89,9.89,9.89s9.89-4.43,9.89-9.89v-25.21c0-5.46-4.43-9.89-9.89-9.89Z"/>
    <path class="cls-9" d="M161.34,84.51c.42,1.1.65,2.29.65,3.53v25.21c0,5.46-4.43,9.89-9.89,9.89-1.24,0-2.43-.23-3.53-.65,1.42,3.72,5.02,6.36,9.24,6.36,5.46,0,9.89-4.43,9.89-9.89v-25.21c0-4.22-2.64-7.82-6.36-9.24Z"/>
    <path class="cls-1" d="M108.36,79.01v25.21c0,5.46-4.43,9.89-9.89,9.89h0c-5.46,0-9.89-4.43-9.89-9.89v-25.21c0-5.46,4.43-9.89,9.89-9.89h0c5.46,0,9.89,4.43,9.89,9.89Z"/>
    <path class="cls-6" d="M102,69.77c.42,1.1.65,2.29.65,3.53v25.21c0,5.46-4.43,9.89-9.89,9.89-1.24,0-2.43-.23-3.53-.65,1.42,3.72,5.02,6.36,9.24,6.36,5.46,0,9.89-4.43,9.89-9.89v-25.21c0-4.22-2.64-7.82-6.36-9.24Z"/>
    <path class="cls-6" d="M120.32,97.75c-.67-2.02-2.89-3.09-4.92-2.43l-32.46,10.67c-4.02,1.32-6.73,5.07-6.73,9.3v21.69c0,10.92,8.85,19.78,19.78,19.78v-32.91l13.44-4.42c9.01-2.96,13.9-12.68,10.9-21.68Z"/>
    <path class="cls-1" d="M83.06,139.26c-1.26,0-2.28-1.03-2.28-2.28v-21.68c0-2.26,1.44-4.26,3.6-4.97l13.86-4.56c1.18-.38,2.5.29,2.88,1.46.19.58.15,1.2-.13,1.74-.27.55-.74.96-1.32,1.14l-13.86,4.56c-.27.09-.45.33-.46.63v21.68c0,1.26-1.02,2.28-2.28,2.28ZM107.62,107.38c-.98,0-1.85-.64-2.17-1.58-.39-1.2.26-2.49,1.46-2.89,1.18-.38,2.5.3,2.89,1.46.39,1.2-.26,2.49-1.46,2.89-.23.07-.47.11-.72.11Z"/>
    <path class="cls-9" d="M120.32,97.75c-.61-1.82-2.46-2.87-4.3-2.58,1.54,8.3-3.26,16.66-11.49,19.36l-10.75,3.53c-1.61.53-2.69,2.03-2.69,3.72v5.55c0,2.16,1.75,3.92,3.92,3.92h.98v-7.4l13.44-4.42c9.01-2.96,13.9-12.68,10.9-21.68Z"/>
  </g>
  <g>
    <circle class="cls-4" cx="128.32" cy="37.95" r="24.75"/>
    <path class="cls-2" d="M125.65,50.99c-1.1,0-2.21-.42-3.05-1.26l-8.49-8.49c-1.68-1.68-1.68-4.41,0-6.09,1.68-1.68,4.41-1.68,6.09,0l5.44,5.44,10.79-10.79c1.68-1.68,4.41-1.68,6.09,0,1.68,1.68,1.68,4.41,0,6.09l-13.84,13.84c-.84.84-1.94,1.26-3.05,1.26Z"/>
  </g>
</svg>